<svg xmlns="http://www.w3.org/2000/svg" fill="none" viewBox="0 0 491 80"><g clip-path="url(#a)"><path fill="#A3ADB5" d="M48.9356 79.615c-1.6495-.0274-2.5842-.5773-3.2165-2.0343C40.3033 65.237 34.86 52.8659 29.3892 40.5497c-2.1168-4.7835-4.3161-9.512-6.5155-14.268-.7422-1.622-1.2371-3.134-.4948-4.9484 2.4467-6.1581 4.7835-12.34369 7.1203-18.55675.5773-1.56701 1.5395-2.034362 3.189-2.034362C44.9768.824662 49.403.934627 61.6916.797169c5.8007-.054982 5.4983.054984 7.7801 5.498281C70.5988 8.98961 100.427 76.1236 100.619 76.536c.935 2.0894-.6868 3.079-1.8965 3.079-7.5326.0275-39.9725.1375-49.7869 0Z"/><path fill="#fff" d="M115.767 79.6151c-1.65-.0275-2.585-.5773-3.217-2.0343-5.416-12.3437-10.859-24.7148-16.3297-37.031-2.1168-4.7835-4.3162-9.512-6.5155-14.268-.7422-1.622-1.2371-3.134-.4948-4.9485 2.4467-6.158 4.7835-12.34361 7.1203-18.55667.5773-1.56701 1.5395-2.034363 3.189-2.034363C111.808.824741 117.581.934706 129.87.797249c5.8-.054983 5.498.054983 7.78 5.498281 1.127 2.69416 30.955 69.82817 31.148 70.24057.934 2.0893-.688 3.079-1.897 3.079-.055 0-41.32.1375-51.134 0ZM17.6498 40.055l16.3574 37.9381c.3849.9072-.2749 1.9244-1.2646 1.9244H1.59486c-.962196 0-1.62199-.9622-1.292094-1.8419C4.83885 65.3746 9.62235 52.8385 15.1206 40.0825c.4674-1.1547 2.0619-1.1547 2.5292-.0275ZM196.646 14.9553 186.969.467353h-3.024V27.0241h2.914V5.55326l9.677 14.18554h.165l9.677-14.24052V26.9966h2.997V.439864h-3.024L196.646 14.9553ZM218.447.467353h2.997V27.0241h-2.997V.467353Zm24.11 24.247447c-5.856 0-10.282-4.811-10.282-10.9691v-.0825c0-6.10306 4.399-10.88657 10.282-10.88657 3.601 0 6.103 1.51203 8.357 3.62887l2.062-2.19931C250.31 1.70447 247.451 0 242.612 0c-7.808 0-13.443 6.21306-13.443 13.7457v.0825c0 7.6151 5.663 13.6632 13.306 13.6632 4.811 0 7.862-1.8694 10.611-4.6735l-1.979-1.9244c-2.502 2.4192-4.894 3.8213-8.55 3.8213ZM280.55 8.43986v-.08247c0-2.08935-.77-3.95877-2.062-5.22337-1.677-1.67698-4.288-2.666667-7.56-2.666667h-11.409V27.0241h2.997V16.7148h7.587l7.698 10.3093h3.684l-8.165-10.8592c4.206-.7422 7.23-3.3264 7.23-7.72504Zm-18.007 5.58074V3.24399h8.193c4.288 0 6.79 1.97938 6.79 5.22336v.08248c0 3.40897-2.831 5.47077-6.818 5.47077h-8.165ZM300.069 0c-8.082 0-13.581 6.4055-13.581 13.7457v.0825c0 7.3127 5.416 13.6632 13.499 13.6632 8.082 0 13.58-6.4055 13.58-13.7457v-.0825C313.595 6.35051 308.152 0 300.069 0Zm10.419 13.8282c0 6.0206-4.316 10.8866-10.391 10.8866-6.076 0-10.475-4.921-10.475-10.9691v-.0825c0-6.02059 4.317-10.88657 10.392-10.88657 6.076 0 10.474 4.92096 10.474 10.96907v.0825ZM198.846 39.945h-14.928v39.0378h6.598V66.0893h7.642c9.32 0 15.616-5.3058 15.616-13.1958v-.11c0-7.7801-5.856-12.8385-14.928-12.8385Zm-.523 19.9038h-7.807V46.2406h8c3.216 0 8.577.8797 8.577 6.7079v.1099c.028 4.1237-3.409 6.7904-8.77 6.7904Zm54.268-7.6976v-.11c0-3.1615-1.127-6.0206-3.189-8.0824-2.584-2.5842-6.598-4.0138-11.271-4.0138h-16.962v39.0378h6.598v-14.213h8.577l10.612 14.213h8.165l-11.574-15.3952c5.718-1.677 9.044-5.8281 9.044-11.4364Zm-24.797-5.9106h10.035c5.168 0 8.109 2.1718 8.109 5.9656v.1099c0 3.8214-3.216 6.2956-8.164 6.2956h-9.98V46.2406Zm40.577 16.1924h19.959v-6.2406h-19.959V46.1856h22.296V39.945h-28.893v39.0378h29.168v-6.2405h-22.571V62.433Zm58.585 5.9656c-3.107 2.9691-6.158 4.921-10.942 4.921-3.519 0-6.79-1.4021-9.182-3.9863-2.392-2.5842-3.739-6.0756-3.739-9.8694v-.0825c0-7.835 5.553-13.7457 12.921-13.7457 4.014 0 7.175 1.4021 10.639 4.6736l.908.8522 4.508-4.8385-.907-.8522c-3.382-3.189-7.56-6.1306-15.12-6.1306-5.471 0-10.502 2.1168-14.186 5.9656-3.574 3.7389-5.553 8.7973-5.553 14.1856v.11c0 5.4433 1.979 10.4742 5.553 14.1855 3.629 3.7664 8.605 5.8557 14.021 5.8557 7.752 0 12.178-3.4364 15.505-6.7904l.88-.8797-4.454-4.3711-.852.7972Zm12.371-28.4536h6.598v39.0378h-6.598V39.945Zm41.402 20.3437c-2.089-1.7595-5.114-3.0516-9.54-4.0138-8.275-1.7869-8.934-3.6289-8.934-5.8832v-.1099c0-2.7492 2.694-4.6736 6.543-4.6736 3.574 0 6.68 1.1822 9.759 3.6839l.99.8247 3.904-5.1683-.935-.7423c-4.096-3.299-8.303-4.756-13.636-4.756-7.67 0-13.251 4.7285-13.251 11.2165v.1099c0 3.354 1.127 5.9107 3.437 7.8076 2.062 1.7045 5.168 2.9416 9.814 3.9588 7.89 1.6769 8.522 3.5189 8.522 5.7457v.1099c0 2.9691-2.776 4.976-6.9 4.976-4.509 0-7.89-1.4021-11.711-4.8385l-.962-.8522-4.152 4.9209.908.7973c4.701 4.2061 9.732 6.158 15.752 6.158 8.083 0 13.718-4.756 13.718-11.5738v-.11c0-3.2165-1.072-5.6907-3.326-7.5876ZM392.99 39.945h6.598v39.0378h-6.598V39.945Zm35.629-.6048c-5.608 0-10.722 2.1443-14.433 6.0481-3.546 3.7663-5.526 8.7698-5.526 14.0756v.11c0 5.3333 1.952 10.3093 5.471 14.0206 3.656 3.8763 8.77 6.0206 14.378 6.0206 5.608 0 10.722-2.1443 14.433-6.0481 3.546-3.7663 5.526-8.7698 5.526-14.0756v-.11c0-5.3333-1.952-10.3092-5.471-14.0206-3.684-3.9038-8.77-6.0206-14.378-6.0206Zm0 34.0069c-3.656 0-7.01-1.4296-9.43-4.0413-2.419-2.5841-3.738-6.0756-3.738-9.8144v-.11c0-7.835 5.608-13.7457 13.085-13.7457 3.657 0 7.011 1.4296 9.43 4.0413 2.419 2.5842 3.739 6.0756 3.739 9.8144v.11c0 7.8075-5.636 13.7457-13.086 13.7457Zm55.807-33.4021v26.9691L463.231 39.945h-5.691v39.0378h6.488V51.3539l21.773 27.6564h5.141V39.9725h-6.516v-.0275Z"/></g><defs><clipPath id="a"><path fill="#fff" d="M0 0h490.997v80H0z"/></clipPath></defs></svg>